<?xml version="1.0" encoding="UTF-8" standalone="no"?>
<svg
   xmlns:dc="http://purl.org/dc/elements/1.1/"
   xmlns:cc="http://creativecommons.org/ns#"
   xmlns:rdf="http://www.w3.org/1999/02/22-rdf-syntax-ns#"
   xmlns:svg="http://www.w3.org/2000/svg"
   xmlns="http://www.w3.org/2000/svg"
   xmlns:sodipodi="http://sodipodi.sourceforge.net/DTD/sodipodi-0.dtd"
   xmlns:inkscape="http://www.inkscape.org/namespaces/inkscape"
   width="210mm"
   height="297mm"
   viewBox="0 0 210 297"
   version="1.1"
   id="svg8"
   inkscape:version="1.0.1 (3bc2e813f5, 2020-09-07)"
   sodipodi:docname="worm.svg">
  <defs
     id="defs2" />
  <sodipodi:namedview
     id="base"
     pagecolor="#ffffff"
     bordercolor="#666666"
     borderopacity="1.0"
     inkscape:pageopacity="0.0"
     inkscape:pageshadow="2"
     inkscape:zoom="0.35"
     inkscape:cx="400"
     inkscape:cy="560"
     inkscape:document-units="mm"
     inkscape:current-layer="layer1"
     inkscape:document-rotation="0"
     showgrid="false"
     inkscape:pagecheckerboard="true"
     showborder="false"
     inkscape:window-width="1920"
     inkscape:window-height="986"
     inkscape:window-x="-11"
     inkscape:window-y="-11"
     inkscape:window-maximized="1" />
  <metadata
     id="metadata5">
    <rdf:RDF>
      <cc:Work
         rdf:about="">
        <dc:format>image/svg+xml</dc:format>
        <dc:type
           rdf:resource="http://purl.org/dc/dcmitype/StillImage" />
        <dc:title></dc:title>
      </cc:Work>
    </rdf:RDF>
  </metadata>
  <g
     inkscape:label="Layer 1"
     inkscape:groupmode="layer"
     id="layer1">
    <path
       style="fill:#ffaaaa;stroke:#000000;stroke-width:2.26054;stroke-linecap:butt;stroke-linejoin:miter;stroke-miterlimit:4;stroke-dasharray:none;stroke-opacity:1"
       d="m 19.051836,50.894658 c -1.539841,9.479831 -0.85443,19.399968 -0.85443,29.050665 0,0.992759 0.435953,4.673159 0,5.98102 -1.975818,5.927449 -3.009874,14.040026 -0.85443,20.506347 0.386667,1.16 1.354159,1.99892 1.70886,3.41773 0.461176,1.8447 0.496066,6.65627 2.563294,7.68988 1.911026,0.95551 1.775185,3.43983 4.272159,4.27215 2.421873,0.8073 4.446397,1.76695 6.835449,2.5633 0.96813,0.32271 2.512312,-0.45271 3.417725,0 1.308628,0.65431 0.668179,1.52261 1.708863,2.56329 0.604174,0.60418 1.799066,-0.38211 2.563294,0 0.254741,0.12737 -0.227848,0.68355 0,0.85443 1.227001,0.92025 3.187631,0.62434 4.272156,1.70887 0.201392,0.20139 -0.201391,0.65303 0,0.85443 0.702993,0.70299 6.476136,0.36893 7.689882,0.85443 4.57453,1.82981 2.559039,3.41489 5.126587,5.12658 0.960515,0.64035 5.604618,3.04133 5.98102,3.41773 0.699839,0.69984 -0.464819,3.34252 0,4.27215 0.360259,0.72053 1.348602,0.98835 1.708862,1.70887 1.26528,2.53055 1.270563,5.95885 2.563294,8.54431 0.924489,1.84898 1.638805,4.13205 2.563294,5.98102 0.254742,0.50948 -0.402783,1.30608 0,1.70886 0.201391,0.20139 0.65304,-0.20139 0.854431,0 0.402783,0.40278 -0.180129,1.16848 0,1.70887 0.179431,0.53829 1.529432,2.87943 1.708863,3.41773 0.26881,0.80642 -0.55042,2.8673 0,3.41772 0.201391,0.20139 0.65304,-0.20139 0.854431,0 0.634844,0.63484 -0.335637,11.32144 0,13.6709 1.48783,10.41481 0.01254,21.41095 2.563294,31.61395 0.245578,0.98231 -0.438672,2.54039 0,3.41773 0.127371,0.25474 0.72706,-0.25474 0.854431,0 0.649468,1.29894 0.502208,2.86327 0.854432,4.27215 0.601913,2.40766 3.424258,5.1462 4.272156,7.6899 1.349605,4.04881 1.549842,7.90822 2.563294,11.96203 0.138153,0.55261 -0.402782,1.30607 0,1.70886 0.726127,0.72613 1.837167,0.98273 2.563294,1.70887 1.452254,1.45225 1.774687,3.8943 3.417726,5.12658 0.531997,0.399 5.604826,1.09355 6.835451,1.70887 2.053009,1.0265 6.066272,1.68044 8.544312,0.85443 0.85087,-0.28362 1.71242,-1.42524 2.56329,-1.70886 0.54039,-0.18013 1.45412,0.50948 1.70887,0 0.78457,-1.56916 -0.43859,-4.2267 0,-5.98102 0.43746,-1.74986 1.25157,-3.29744 1.70886,-5.1266 0.87493,-3.49973 0.76259,-18.08081 -0.85443,-20.50634 -0.35327,-0.5299 -1.3556,-0.32454 -1.70886,-0.85443 -0.84288,-1.26432 -1.19899,-11.63142 -1.70887,-13.6709 -0.49394,-1.97577 -3.03684,-14.14446 -4.27215,-15.37978 -0.17986,-0.17984 -3.38746,-1.64832 -3.41773,-1.70885 -0.553155,-1.10631 -0.10615,-5.23275 -0.854431,-5.98103 -0.20139,-0.20139 -0.653041,0.2014 -0.854431,0 -0.191082,-0.19107 0,-21.76682 0,-23.92407 0,-5.4023 -0.425253,-10.24532 -1.708863,-15.37977 -0.712026,-2.8481 1.068039,-0.71202 0,-4.27215 -0.623273,-2.07758 -1.940021,-3.90344 -2.563294,-5.98101 -0.380061,-1.26688 0.960292,-5.87517 0,-6.83546 -0.20139,-0.20139 -0.764366,0.2702 -0.854431,0 -0.36026,-1.08078 0.509485,-2.39875 0,-3.41772 -0.737842,-1.47569 -1.689372,-1.68938 -2.563293,-2.5633 -0.402784,-0.40278 0.254741,-1.19938 0,-1.70886 -0.138361,-0.27672 -2.176298,-4.73959 -2.563294,-5.12659 -0.450325,-0.45032 -1.258538,-0.4041 -1.708863,-0.85443 -1.096618,-1.09661 -0.612244,-4.02997 -1.708863,-5.12658 -1.200953,-1.20096 -5.212178,-2.64889 -6.83545,-4.27216 -0.636856,-0.63686 -0.217575,-1.92644 -0.854432,-2.56329 -0.402782,-0.40279 -1.156249,0.13815 -1.708862,0 -1.581313,0.63464 -1.567056,-1.459807 -2.563294,-1.708865 -4.501714,-1.125431 -12.550044,-2.563295 -17.088626,-2.563295 -0.351825,0 -2.33712,0.226173 -2.563295,0 -0.20139,-0.201393 0.201392,-0.653041 0,-0.854433 -0.402782,-0.402783 -1.306079,0.402782 -1.708861,0 -0.905389,-0.90539 -3.871557,-3.924787 -4.272157,-5.126586 -0.895878,-2.687634 0.399054,-6.605372 0,-9.398744 -0.778554,-5.449878 -0.854432,-10.676555 -0.854432,-16.234197 0,-7.72613 -0.408691,-15.490908 0.854432,-23.069644 0.197688,-1.186125 -0.379577,-3.133428 0,-4.272156 1.321993,-3.965978 0.247365,-3.361559 2.563294,-6.835451 1.116945,-1.675418 -0.958543,-22.3193243 -1.708863,-23.0696448 -1.040566,-1.040566 -2.10792,-1.272261 -3.417725,-1.708863 -1.3125,-0.4375 -0.662057,-1.865423 -1.708863,-2.563294 -0.473953,-0.315968 -1.199378,0.254742 -1.708862,0 -0.254742,-0.127371 0.201391,-0.65304 0,-0.854431 -0.402783,-0.402783 -1.168473,0.18013 -1.708863,0 -1.260674,-0.420225 -2.342795,-1.350553 -3.417725,-1.708862 -3.120019,-1.04000705 -8.981217,2.571046 -11.107608,4.272156 -3.271569,2.6172554 2.435504,-1.581073 -1.708861,2.563294 -0.201393,0.2013906 -0.727062,-0.2547428 -0.854433,0 -0.939953,1.8799098 -0.434972,4.7381688 -0.854431,6.8354498 -0.28481,1.139242 -0.569619,2.278484 -0.85443,3.417726 -0.28481,0 -0.653041,-0.201392 -0.85443,0 -1.301395,1.301394 0.29804,10.173793 0,11.962038 -0.148066,0.888395 -0.635992,1.689534 -0.854434,2.563294 -0.641847,2.567396 1.159155,6.226002 0,8.544312 -1.461001,2.922007 -0.83839,6.045188 0,9.398744 z"
       id="path835" />
    <path
       style="fill:#ffaaaa;stroke:#000000;stroke-width:2.26054;stroke-linecap:butt;stroke-linejoin:miter;stroke-miterlimit:4;stroke-dasharray:none;stroke-opacity:1"
       d="m 237.81229,50.894657 c 1.53985,9.479833 0.85443,19.39997 0.85443,29.050668 0,0.99276 -0.43595,4.67316 0,5.98102 1.97582,5.92745 3.00988,14.04003 0.85443,20.506355 -0.38666,1.16 -1.35415,1.99892 -1.70886,3.41773 -0.46117,1.8447 -0.49606,6.65627 -2.56329,7.68988 -1.91103,0.95551 -1.77518,3.43983 -4.27216,4.27215 -2.42187,0.8073 -4.4464,1.76695 -6.83545,2.5633 -0.96813,0.32271 -2.51231,-0.45271 -3.41772,0 -1.30863,0.65431 -0.66818,1.52261 -1.70887,2.56329 -0.60417,0.60418 -1.79906,-0.38211 -2.56329,0 -0.25474,0.12737 0.22785,0.68355 0,0.85443 -1.227,0.92025 -3.18763,0.62434 -4.27216,1.70887 -0.20139,0.20139 0.20139,0.65303 0,0.85443 -0.70299,0.70299 -6.47613,0.36893 -7.68988,0.85443 -4.57453,1.82981 -2.55904,3.41489 -5.12659,5.12658 -0.96051,0.64035 -5.60461,3.04133 -5.98101,3.41773 -0.69984,0.69984 0.46482,3.34252 0,4.27215 -0.36026,0.72053 -1.34861,0.98835 -1.70887,1.70887 -1.26528,2.53055 -1.27056,5.95885 -2.56329,8.54431 -0.92449,1.84898 -1.63881,4.13205 -2.56329,5.98102 -0.25474,0.50948 0.40278,1.30608 0,1.70886 -0.20139,0.20139 -0.65304,-0.20139 -0.85444,0 -0.40278,0.40278 0.18013,1.16848 0,1.70887 -0.17943,0.53829 -1.52943,2.87943 -1.70886,3.41773 -0.26881,0.80642 0.55042,2.8673 0,3.41772 -0.20139,0.20139 -0.65304,-0.20139 -0.85443,0 -0.63484,0.63484 0.33564,11.32144 0,13.6709 -1.48783,10.41481 -0.0125,21.41095 -2.56329,31.61395 -0.24558,0.98231 0.43867,2.54039 0,3.41773 -0.12737,0.25474 -0.72706,-0.25474 -0.85443,0 -0.64947,1.29894 -0.50221,2.86327 -0.85444,4.27215 -0.60191,2.40766 -3.42425,5.1462 -4.27215,7.6899 -1.34961,4.04881 -1.54984,7.90822 -2.5633,11.96203 -0.13815,0.55261 0.40279,1.30607 0,1.70886 -0.72612,0.72613 -1.83716,0.98273 -2.56329,1.70887 -1.45225,1.45225 -1.77469,3.8943 -3.41773,5.12658 -0.53199,0.399 -5.60482,1.09355 -6.83545,1.70887 -2.05301,1.0265 -6.06627,1.68044 -8.54431,0.85443 -0.85087,-0.28362 -1.71242,-1.42524 -2.56329,-1.70886 -0.54039,-0.18013 -1.45412,0.50948 -1.70887,0 -0.78457,-1.56916 0.43859,-4.2267 0,-5.98102 -0.43746,-1.74986 -1.25157,-3.29744 -1.70886,-5.1266 -0.87493,-3.49973 -0.76259,-18.08081 0.85443,-20.50634 0.35327,-0.5299 1.3556,-0.32454 1.70886,-0.85443 0.84288,-1.26432 1.19899,-11.63142 1.70887,-13.6709 0.49394,-1.97577 3.03684,-14.14446 4.27215,-15.37978 0.17986,-0.17984 3.38746,-1.64832 3.41773,-1.70885 0.55316,-1.10631 0.10615,-5.23275 0.85443,-5.98103 0.20139,-0.20139 0.65304,0.2014 0.85443,0 0.19109,-0.19107 0,-21.76682 0,-23.92407 0,-5.4023 0.42525,-10.24532 1.70886,-15.37977 0.71203,-2.8481 -1.06803,-0.71202 0,-4.27215 0.62328,-2.07758 1.94003,-3.90344 2.5633,-5.98101 0.38006,-1.26688 -0.96029,-5.87517 0,-6.83546 0.20139,-0.20139 0.76437,0.2702 0.85443,0 0.36026,-1.08078 -0.50948,-2.39875 0,-3.41772 0.73784,-1.47569 1.68937,-1.68938 2.56329,-2.5633 0.40279,-0.40278 -0.25474,-1.19938 0,-1.70886 0.13837,-0.27672 2.1763,-4.73959 2.5633,-5.12659 0.45032,-0.45032 1.25854,-0.4041 1.70886,-0.85443 1.09662,-1.09661 0.61224,-4.02997 1.70886,-5.12658 1.20096,-1.20096 5.21218,-2.64889 6.83545,-4.27216 0.63686,-0.63686 0.21758,-1.92644 0.85444,-2.56329 0.40278,-0.40279 1.15624,0.13815 1.70886,0 1.58131,0.63464 1.56705,-1.459815 2.56329,-1.708875 4.50172,-1.12543 12.55005,-2.56329 17.08863,-2.56329 0.35182,0 2.33712,0.22617 2.56329,0 0.20139,-0.2014 -0.20139,-0.65304 0,-0.85444 0.40278,-0.40278 1.30608,0.40278 1.70886,0 0.90539,-0.90539 3.87156,-3.92478 4.27216,-5.12658 0.89588,-2.68764 -0.39905,-6.60537 0,-9.39875 0.77856,-5.449875 0.85443,-10.676552 0.85443,-16.234194 0,-7.726129 0.40869,-15.490909 -0.85443,-23.069645 -0.19769,-1.186124 0.37958,-3.133429 0,-4.272156 -1.32199,-3.965977 -0.24736,-3.36156 -2.56329,-6.835452 -1.11695,-1.675416 0.95854,-22.3193228 1.70886,-23.0696438 1.04056,-1.040566 2.10792,-1.272261 3.41772,-1.708863 1.3125,-0.4375 0.66206,-1.865423 1.70887,-2.563294 0.47395,-0.315968 1.19938,0.254742 1.70886,0 0.25474,-0.127371 -0.20139,-0.65304 0,-0.854431 0.40278,-0.402783 1.16847,0.18013 1.70886,0 1.26068,-0.420225 2.3428,-1.350553 3.41773,-1.708862 3.12002,-1.04000705 8.98121,2.571046 11.10761,4.272156 3.27156,2.617256 -2.43551,-1.581073 1.70886,2.563294 0.20139,0.201391 0.72706,-0.254742 0.85443,0 0.93995,1.8799098 0.43497,4.7381688 0.85443,6.8354498 0.28481,1.139242 0.56962,2.278484 0.85443,3.417726 0.28481,0 0.65304,-0.201392 0.85443,0 1.3014,1.301394 -0.29804,10.173794 0,11.962039 0.14807,0.888394 0.63599,1.689534 0.85443,2.563294 0.64185,2.567395 -1.15915,6.226003 0,8.544311 1.46101,2.922008 0.83839,6.045189 0,9.398743 z"
       id="path835-3" />
  </g>
</svg>
