<?xml version="1.0" encoding="UTF-8" standalone="no"?>
<svg
   xmlns:dc="http://purl.org/dc/elements/1.1/"
   xmlns:cc="http://creativecommons.org/ns#"
   xmlns:rdf="http://www.w3.org/1999/02/22-rdf-syntax-ns#"
   xmlns:svg="http://www.w3.org/2000/svg"
   xmlns="http://www.w3.org/2000/svg"
   xmlns:sodipodi="http://sodipodi.sourceforge.net/DTD/sodipodi-0.dtd"
   xmlns:inkscape="http://www.inkscape.org/namespaces/inkscape"
   width="210mm"
   height="297mm"
   viewBox="0 0 210 297"
   version="1.1"
   id="svg858"
   inkscape:version="1.0.1 (3bc2e813f5, 2020-09-07)"
   sodipodi:docname="conveyor.svg">
  <defs
     id="defs852" />
  <sodipodi:namedview
     id="base"
     pagecolor="#ffffff"
     bordercolor="#666666"
     borderopacity="1.0"
     inkscape:pageopacity="0.0"
     inkscape:pageshadow="2"
     inkscape:zoom="0.24748737"
     inkscape:cx="6324.0711"
     inkscape:cy="574.52923"
     inkscape:document-units="mm"
     inkscape:current-layer="layer1"
     inkscape:document-rotation="0"
     showgrid="false"
     inkscape:pagecheckerboard="true"
     showborder="false"
     inkscape:window-width="1920"
     inkscape:window-height="986"
     inkscape:window-x="-11"
     inkscape:window-y="-11"
     inkscape:window-maximized="1" />
  <metadata
     id="metadata855">
    <rdf:RDF>
      <cc:Work
         rdf:about="">
        <dc:format>image/svg+xml</dc:format>
        <dc:type
           rdf:resource="http://purl.org/dc/dcmitype/StillImage" />
        <dc:title></dc:title>
      </cc:Work>
    </rdf:RDF>
  </metadata>
  <g
     inkscape:label="Layer 1"
     inkscape:groupmode="layer"
     id="layer1">
    <rect
       style="fill:#666666;fill-rule:evenodd;stroke-width:5.5897"
       id="rect1421"
       width="128"
       height="240"
       x="0"
       y="272"
       rx="0.83084452"
       ry="1.3108279"
       inkscape:export-xdpi="25.400002"
       inkscape:export-ydpi="25.400002" />
    <rect
       style="fill:#b3b3b3;fill-rule:evenodd;stroke-width:5.58969"
       id="rect1421-1"
       width="128"
       height="240"
       x="128"
       y="272"
       rx="0.83084458"
       ry="1.3108279"
       inkscape:export-xdpi="25.400002"
       inkscape:export-ydpi="25.400002" />
    <rect
       style="fill:#666666;fill-rule:evenodd;stroke-width:5.58969"
       id="rect1421-1-7"
       width="128"
       height="240"
       x="256"
       y="272"
       rx="0.83084464"
       ry="1.3108279"
       inkscape:export-xdpi="25.400002"
       inkscape:export-ydpi="25.400002" />
    <rect
       style="fill:#666666;fill-rule:evenodd;stroke-width:5.58969"
       id="rect1421-1-7-8"
       width="128"
       height="240"
       x="512"
       y="272"
       rx="0.83084464"
       ry="1.3108279"
       inkscape:export-xdpi="25.400002"
       inkscape:export-ydpi="25.400002" />
    <rect
       style="fill:#666666;fill-rule:evenodd;stroke-width:5.58969"
       id="rect1421-1-7-8-6"
       width="128"
       height="240"
       x="768"
       y="272"
       rx="0.83084464"
       ry="1.3108279"
       inkscape:export-xdpi="25.400002"
       inkscape:export-ydpi="25.400002" />
    <rect
       style="fill:#b3b3b3;fill-rule:evenodd;stroke-width:5.58969"
       id="rect1421-1-2"
       width="128"
       height="240"
       x="384"
       y="272"
       rx="0.83084464"
       ry="1.3108279"
       inkscape:export-xdpi="25.400002"
       inkscape:export-ydpi="25.400002" />
    <rect
       style="fill:#b3b3b3;fill-rule:evenodd;stroke-width:5.58969"
       id="rect1421-1-2-6"
       width="128"
       height="240"
       x="640"
       y="272"
       rx="0.83084464"
       ry="1.3108279"
       inkscape:export-xdpi="25.400002"
       inkscape:export-ydpi="25.400002" />
    <path
       id="path1513"
       style="fill:#b3b3b3;fill-rule:evenodd;stroke-width:3.54478"
       d="M 912.00006,255.99994 A 15.999999,15.999999 0 0 1 896,272 v 238.6893 c 0,0.71657 -0.36109,1.29374 -0.81287,1.30897 a 255.99999,255.99999 0 0 0 0.81287,0.002 255.99999,255.99999 0 0 0 255.9999,-255.99988 z"
       inkscape:export-xdpi="25.400002"
       inkscape:export-ydpi="25.400002" />
    <path
       id="path1513-2"
       style="fill:#666666;fill-rule:evenodd;stroke-width:3.54478"
       d="M 895.9628,6.6287695e-5 A 256,256 0 0 0 895.18713,0.00213268 C 895.63891,0.01734622 896,0.59452682 896,1.3110952 V 240.0004 a 16,16 0 0 1 16.00006,15.99954 H 1151.9999 A 256,256 0 0 0 896,6.6287695e-5 a 256,256 0 0 0 -0.0372,0 z"
       inkscape:export-xdpi="25.400002"
       inkscape:export-ydpi="25.400002" />
    <rect
       style="fill:#666666;fill-rule:evenodd;stroke-width:5.58969"
       id="rect1421-6"
       width="128"
       height="240"
       x="128"
       y="6.6287692e-05"
       rx="0.83084458"
       ry="1.3108279"
       inkscape:export-xdpi="25.400002"
       inkscape:export-ydpi="25.400002" />
    <rect
       style="fill:#b3b3b3;fill-rule:evenodd;stroke-width:5.58969"
       id="rect1421-1-8"
       width="128"
       height="240"
       x="256"
       y="6.6287692e-05"
       rx="0.83084464"
       ry="1.3108279"
       inkscape:export-xdpi="25.400002"
       inkscape:export-ydpi="25.400002" />
    <rect
       style="fill:#666666;fill-rule:evenodd;stroke-width:5.58969"
       id="rect1421-1-7-3"
       width="128"
       height="240"
       x="384"
       y="6.6287692e-05"
       rx="0.83084464"
       ry="1.3108279"
       inkscape:export-xdpi="25.400002"
       inkscape:export-ydpi="25.400002" />
    <rect
       style="fill:#666666;fill-rule:evenodd;stroke-width:5.58969"
       id="rect1421-1-7-8-8"
       width="128"
       height="240"
       x="640"
       y="6.6287692e-05"
       rx="0.83084464"
       ry="1.3108279"
       inkscape:export-xdpi="25.400002"
       inkscape:export-ydpi="25.400002" />
    <rect
       style="fill:#b3b3b3;fill-rule:evenodd;stroke-width:5.58969"
       id="rect1421-1-2-5"
       width="128"
       height="240"
       x="512"
       y="6.6287692e-05"
       rx="0.83084464"
       ry="1.3108279"
       inkscape:export-xdpi="25.400002"
       inkscape:export-ydpi="25.400002" />
    <rect
       style="fill:#b3b3b3;fill-rule:evenodd;stroke-width:5.58969"
       id="rect1421-1-2-6-4"
       width="128"
       height="240"
       x="768"
       y="6.6287692e-05"
       rx="0.83084464"
       ry="1.3108279"
       inkscape:export-xdpi="25.400002"
       inkscape:export-ydpi="25.400002" />
    <rect
       style="fill:#b3b3b3;fill-rule:evenodd;stroke-width:5.58969"
       id="rect1421-1-5"
       width="128"
       height="240"
       x="-1.5258789e-05"
       y="6.6287692e-05"
       rx="0.83084464"
       ry="1.3108279"
       inkscape:export-xdpi="25.400002"
       inkscape:export-ydpi="25.400002" />
    <rect
       style="fill:#666666;fill-rule:evenodd;stroke-width:5.58969"
       id="rect1421-8"
       width="128"
       height="240"
       x="1152"
       y="-240.00127"
       rx="0.83084458"
       ry="1.3108279"
       transform="scale(1,-1)"
       inkscape:export-xdpi="25.400002"
       inkscape:export-ydpi="25.400002" />
    <rect
       style="fill:#b3b3b3;fill-rule:evenodd;stroke-width:5.58969"
       id="rect1421-1-4"
       width="128"
       height="240"
       x="1280"
       y="-240.00127"
       rx="0.83084464"
       ry="1.3108279"
       transform="scale(1,-1)"
       inkscape:export-xdpi="25.400002"
       inkscape:export-ydpi="25.400002" />
    <rect
       style="fill:#666666;fill-rule:evenodd;stroke-width:5.58969"
       id="rect1421-1-7-9"
       width="128"
       height="240"
       x="1408"
       y="-240.00127"
       rx="0.83084464"
       ry="1.3108279"
       transform="scale(1,-1)"
       inkscape:export-xdpi="25.400002"
       inkscape:export-ydpi="25.400002" />
    <rect
       style="fill:#666666;fill-rule:evenodd;stroke-width:5.58969"
       id="rect1421-1-7-8-9"
       width="128"
       height="240"
       x="1664"
       y="-240.00127"
       rx="0.83084464"
       ry="1.3108279"
       transform="scale(1,-1)"
       inkscape:export-xdpi="25.400002"
       inkscape:export-ydpi="25.400002" />
    <rect
       style="fill:#666666;fill-rule:evenodd;stroke-width:5.58969"
       id="rect1421-1-7-8-6-1"
       width="128"
       height="240"
       x="1920"
       y="-240.00127"
       rx="0.83084464"
       ry="1.3108279"
       transform="scale(1,-1)"
       inkscape:export-xdpi="25.400002"
       inkscape:export-ydpi="25.400002" />
    <rect
       style="fill:#b3b3b3;fill-rule:evenodd;stroke-width:5.58969"
       id="rect1421-1-2-7"
       width="128"
       height="240"
       x="1536"
       y="-240.00127"
       rx="0.83084464"
       ry="1.3108279"
       transform="scale(1,-1)"
       inkscape:export-xdpi="25.400002"
       inkscape:export-ydpi="25.400002" />
    <rect
       style="fill:#b3b3b3;fill-rule:evenodd;stroke-width:5.58969"
       id="rect1421-1-2-6-9"
       width="128"
       height="240"
       x="1792"
       y="-240.00127"
       rx="0.83084464"
       ry="1.3108279"
       transform="scale(1,-1)"
       inkscape:export-xdpi="25.400002"
       inkscape:export-ydpi="25.400002" />
    <path
       id="path1513-3"
       style="fill:#b3b3b3;fill-rule:evenodd;stroke-width:3.54478"
       d="M 2064.0001,256.00132 A 15.999999,-15.999999 0 0 0 2048,240.00125 V 1.31195 c 0,-0.71657 -0.3611,-1.29373 -0.8128,-1.30895 A 255.99999,-255.99999 0 0 1 2048,0 255.99999,-255.99999 0 0 1 2303.9999,255.99988 Z"
       inkscape:export-xdpi="25.400002"
       inkscape:export-ydpi="25.400002" />
    <path
       id="path1513-2-7"
       style="fill:#666666;fill-rule:evenodd;stroke-width:3.54478"
       d="m 2047.9628,512.0012 a 256,-256 0 0 1 -0.7756,-0.002 c 0.4517,-0.0152 0.8128,-0.59239 0.8128,-1.30896 V 272.00086 a 16,-16 0 0 0 16.0001,-15.99954 h 239.9998 A 256,-256 0 0 1 2048,512.0012 a 256,-256 0 0 1 -0.037,0 z"
       inkscape:export-xdpi="25.400002"
       inkscape:export-ydpi="25.400002" />
    <rect
       style="fill:#666666;fill-rule:evenodd;stroke-width:5.58969"
       id="rect1421-6-7"
       width="128"
       height="240"
       x="1280"
       y="-512.00122"
       rx="0.83084464"
       ry="1.3108279"
       transform="scale(1,-1)"
       inkscape:export-xdpi="25.400002"
       inkscape:export-ydpi="25.400002" />
    <rect
       style="fill:#b3b3b3;fill-rule:evenodd;stroke-width:5.58969"
       id="rect1421-1-8-9"
       width="128"
       height="240"
       x="1408"
       y="-512.00122"
       rx="0.83084464"
       ry="1.3108279"
       transform="scale(1,-1)"
       inkscape:export-xdpi="25.400002"
       inkscape:export-ydpi="25.400002" />
    <rect
       style="fill:#666666;fill-rule:evenodd;stroke-width:5.58969"
       id="rect1421-1-7-3-1"
       width="128"
       height="240"
       x="1536"
       y="-512.00122"
       rx="0.83084464"
       ry="1.3108279"
       transform="scale(1,-1)"
       inkscape:export-xdpi="25.400002"
       inkscape:export-ydpi="25.400002" />
    <rect
       style="fill:#666666;fill-rule:evenodd;stroke-width:5.58969"
       id="rect1421-1-7-8-8-3"
       width="128"
       height="240"
       x="1792"
       y="-512.00122"
       rx="0.83084464"
       ry="1.3108279"
       transform="scale(1,-1)"
       inkscape:export-xdpi="25.400002"
       inkscape:export-ydpi="25.400002" />
    <rect
       style="fill:#b3b3b3;fill-rule:evenodd;stroke-width:5.58969"
       id="rect1421-1-2-5-8"
       width="128"
       height="240"
       x="1664"
       y="-512.00122"
       rx="0.83084464"
       ry="1.3108279"
       transform="scale(1,-1)"
       inkscape:export-xdpi="25.400002"
       inkscape:export-ydpi="25.400002" />
    <rect
       style="fill:#b3b3b3;fill-rule:evenodd;stroke-width:5.58969"
       id="rect1421-1-2-6-4-2"
       width="128"
       height="240"
       x="1920"
       y="-512.00122"
       rx="0.83084464"
       ry="1.3108279"
       transform="scale(1,-1)"
       inkscape:export-xdpi="25.400002"
       inkscape:export-ydpi="25.400002" />
    <rect
       style="fill:#b3b3b3;fill-rule:evenodd;stroke-width:5.58969"
       id="rect1421-1-5-3"
       width="128"
       height="240"
       x="1152"
       y="-512.00122"
       rx="0.83084464"
       ry="1.3108279"
       transform="scale(1,-1)"
       inkscape:export-xdpi="25.400002"
       inkscape:export-ydpi="25.400002" />
  </g>
</svg>
