<?xml version="1.0" encoding="UTF-8" standalone="no"?>
<svg
   xmlns:dc="http://purl.org/dc/elements/1.1/"
   xmlns:cc="http://creativecommons.org/ns#"
   xmlns:rdf="http://www.w3.org/1999/02/22-rdf-syntax-ns#"
   xmlns:svg="http://www.w3.org/2000/svg"
   xmlns="http://www.w3.org/2000/svg"
   xmlns:sodipodi="http://sodipodi.sourceforge.net/DTD/sodipodi-0.dtd"
   xmlns:inkscape="http://www.inkscape.org/namespaces/inkscape"
   width="210mm"
   height="297mm"
   viewBox="0 0 210 297"
   version="1.1"
   id="svg2040"
   inkscape:version="1.0.1 (3bc2e813f5, 2020-09-07)"
   sodipodi:docname="plus-worm.svg">
  <defs
     id="defs2034" />
  <sodipodi:namedview
     id="base"
     pagecolor="#ffffff"
     bordercolor="#666666"
     borderopacity="1.0"
     inkscape:pageopacity="0.0"
     inkscape:pageshadow="2"
     inkscape:zoom="0.35"
     inkscape:cx="400"
     inkscape:cy="560"
     inkscape:document-units="mm"
     inkscape:current-layer="layer1"
     inkscape:document-rotation="0"
     showgrid="false"
     inkscape:pagecheckerboard="true"
     showborder="false"
     inkscape:window-width="1920"
     inkscape:window-height="986"
     inkscape:window-x="-11"
     inkscape:window-y="-11"
     inkscape:window-maximized="1" />
  <metadata
     id="metadata2037">
    <rdf:RDF>
      <cc:Work
         rdf:about="">
        <dc:format>image/svg+xml</dc:format>
        <dc:type
           rdf:resource="http://purl.org/dc/dcmitype/StillImage" />
        <dc:title></dc:title>
      </cc:Work>
    </rdf:RDF>
  </metadata>
  <g
     inkscape:label="Layer 1"
     inkscape:groupmode="layer"
     id="layer1">
    <path
       id="rect2611"
       style="fill:#ffaaaa;fill-opacity:1;fill-rule:evenodd;stroke:#000000;stroke-width:10;stroke-miterlimit:4;stroke-dasharray:none"
       d="M 265.71721,5.0674734 C 249.65976,3.6077194 243.71933,24.241858 241.14877,42.970733 L 215.44639,230.23527 c -0.37215,2.71147 0.2743,5.39578 0.78858,7.94318 -0.51457,1.49253 -0.78858,3.04321 -0.78858,4.63589 0,8.28233 7.32961,15.44314 18.13223,19.05155 3.38321,1.60669 7.08581,2.49287 10.97193,2.49287 h 0.75605 c 0.57459,0 1.14482,-0.0213 1.711,-0.0594 0.84254,0.039 1.69394,0.0594 2.55281,0.0594 h 44.46241 V 376.4217 c 0,18.90446 12.20919,34.1235 27.37456,34.1235 15.16533,0 27.44724,-15.21918 27.37402,-34.1235 l -0.43407,-112.06294 h 31.79133 c 3.10816,0 6.11544,-0.26115 8.9731,-0.74827 1.40581,0.48902 2.86436,0.74827 4.3615,0.74827 5.21912,0 9.97731,-3.12536 13.62035,-8.30285 4.49543,-3.64838 7.16854,-8.24042 7.16854,-13.24157 0,-1.42511 -0.21926,-2.81668 -0.63354,-4.16305 0.41286,-2.69055 0.63354,-5.50929 0.63354,-8.41602 V 169.2147 c 0,-2.10294 -0.12125,-4.15674 -0.34104,-6.15259 0.13999,-0.9911 0.21341,-2.00031 0.21341,-3.02462 0,-5.77607 -2.29121,-11.07828 -6.14331,-15.28641 -3.74139,-5.98238 -8.85804,-9.65987 -14.51795,-9.65987 -1.1956,0 -2.36641,0.16649 -3.50573,0.48162 -1.60411,-0.2319 -3.25329,-0.3545 -4.93718,-0.3545 h -53.41792 c -16.1237,0 -38.93148,11.0694 -38.93148,24.81916 0,3.94541 1.0704,7.66921 2.97554,10.97504 l -1.62367,-0.31833 v 50.57572 H 274.41076 L 297.84528,44.482638 C 300.32948,25.742112 290.09029,7.2831794 274.03278,5.8234254 Z M 348.03986,184.85664 h 24.64498 v 36.41328 h -24.50391 z"
       sodipodi:nodetypes="ssscscsscscssscscscscsscscscsssccccsssccccc" />
    <path
       id="rect2635"
       style="fill:#ffaaaa;fill-opacity:1;fill-rule:evenodd;stroke:#000000;stroke-width:9.24322;stroke-miterlimit:4;stroke-dasharray:none"
       d="m 100.82453,114.55219 c -14.516394,0 -26.202544,12.98046 -26.202544,29.10416 v 42.46149 H 33.725777 c -16.123708,0 -29.1041668,11.68668 -29.1041668,26.20305 0,14.51639 12.9804588,26.20306 29.1041668,26.20306 h 40.896209 v 37.6809 c 0,16.12371 11.68615,29.10417 26.202544,29.10417 14.51638,0 26.20305,-12.98046 26.20305,-29.10417 v -37.6809 h 39.2467 c 16.12371,0 29.10416,-11.68667 29.10416,-26.20306 0,-14.51637 -12.98045,-26.20305 -29.10416,-26.20305 h -39.2467 v -42.46149 c 0,-16.1237 -11.68667,-29.10416 -26.20305,-29.10416 z" />
  </g>
</svg>
